<?xml version="1.0" encoding="UTF-8" standalone="no"?>
<!DOCTYPE svg PUBLIC "-//W3C//DTD SVG 1.1//EN" "http://www.w3.org/Graphics/SVG/1.1/DTD/svg11.dtd">
<svg width="100%" height="100%" viewBox="0 0 2069 1117" version="1.1" xmlns="http://www.w3.org/2000/svg" xmlns:xlink="http://www.w3.org/1999/xlink" xml:space="preserve" xmlns:serif="http://www.serif.com/" style="fill-rule:evenodd;clip-rule:evenodd;stroke-linejoin:round;stroke-miterlimit:2;">
    <g id="Dew-Logo" serif:id="Dew Logo" transform="matrix(5.74131,0,0,5.74131,-5071.1,-5320.64)">
        <g transform="matrix(1,0,0,1,883.265,926.73)">
            <path d="M166.83,53.21C173.16,32 177.7,23.71 177.74,23.63L183.56,13.27L139.56,33.52L142.34,24.77L102.79,44.67L100.56,51.67L67.2,67.34L66.71,68.07C65.93,68.74 64.24,71.07 58.39,79.18C48.2,93.32 29.22,119.63 11.75,139.48L0,152.25L44.54,133.91C39.29,146.82 28.27,173.17 21.84,183.54L14.98,194.54L81.63,163.3C86.589,161.126 91.177,158.19 95.23,154.6C95.61,154.25 95.98,153.89 96.34,153.53C97.76,153.726 99.2,153.726 100.62,153.53C101,153.47 101.38,153.4 101.76,153.32C103.481,152.92 105.157,152.344 106.76,151.6L195.91,109.89L196.5,109.06C196.95,108.43 241.35,45.76 269.45,13.8L281.47,0L166.83,53.21Z" style="fill:rgb(35,31,32);fill-rule:nonzero;"/>
        </g>
        <g transform="matrix(1,0,0,1,883.265,926.73)">
            <path d="M23.88,184.8C31.38,172.73 44.76,139.88 48.88,129.51L9.09,145.91L13.51,141.1C40,112.31 68.32,70 68.61,69.57L68.83,69.23L102.53,53.42L104.77,46.36L138.32,29.48L135.62,37.98L177.86,18.54L175.64,22.46C175.59,22.56 170.28,32.1 163.04,57.63L272.13,7L267.58,12.17C239.46,44.17 194.92,107 194.47,107.63L194.25,107.94L105.75,149.35C104.298,150.034 102.78,150.567 101.22,150.94C100.91,151.01 100.58,151.07 100.22,151.12C98.63,151.36 97.01,151.306 95.44,150.96C94.85,151.6 94.22,152.24 93.55,152.85C89.674,156.273 85.288,159.07 80.55,161.14L21.3,189L23.88,184.8Z" style="fill:rgb(148,201,61);fill-rule:nonzero;"/>
        </g>
        <g transform="matrix(1,0,0,1,883.265,926.73)">
            <path d="M174.39,21.73C174.39,21.73 168.64,31.87 160.8,60.26L266.5,11.2C238,43.62 193.3,106.78 193.3,106.78L105.22,148C103.855,148.643 102.427,149.146 100.96,149.5C100.68,149.56 100.393,149.613 100.1,149.66C98.484,149.901 96.835,149.803 95.26,149.37L95,149.31C94.255,150.172 93.46,150.99 92.62,151.76C88.848,155.062 84.587,157.761 79.99,159.76L25.11,185.57C34.19,170.95 51.52,126.87 51.52,126.87L14.58,142.08C41.42,112.87 69.81,70.37 69.81,70.37L103.72,54.46L106,47.38L135.9,32.32L133.25,40.66L174.38,21.73M181.29,15.36L173.17,19.09L138,35.28L138.66,33.19L140.74,26.63L134.59,29.73L104.67,44.79L103.58,45.34L103.21,46.5L101.35,52.37L68.58,67.75L67.85,68.09L67.4,68.76C66.4,68.76 38.11,110.97 12.4,140.12L3.56,149.74L15.64,144.74L46.23,132.14C41.14,144.87 29.43,173.11 22.65,184L17.49,192.31L26.35,188.15L81.23,162.39C86.101,160.256 90.608,157.375 94.59,153.85C95.08,153.4 95.59,152.94 96,152.47C97.484,152.7 98.996,152.7 100.48,152.47C100.84,152.42 101.2,152.35 101.55,152.27C103.196,151.877 104.798,151.318 106.33,150.6L106.44,150.55L106.52,150.55L194.52,109.37L195.21,109.04L195.65,108.41C196.1,107.78 240.59,45 268.65,13.07L277.74,2.73L265.25,8.53L165.32,55C172.04,32 176.86,23.29 176.91,23.2L181.29,15.36Z" style="fill:rgb(35,31,32);fill-rule:nonzero;"/>
        </g>
        <g transform="matrix(1,0,0,1,883.265,926.73)">
            <path d="M72.58,71.81L107,55.65L109.27,48.51L130.44,37.85L127.89,45.85L167.89,27.35C167.89,27.35 163.3,38.58 156,65.13L254.59,19.33C254.59,19.33 239,33.95 191.38,102.66L104.18,143.46C101.83,144.46 99.48,145.46 96.59,144.67L96.44,144.67C95.704,144.423 95.024,144.032 94.44,143.52C93.354,145.115 92.085,146.578 90.66,147.88C87.152,150.954 83.192,153.47 78.92,155.34L33.79,176.48C43.12,160.7 57.74,119.27 57.74,119.27L27.94,131.72C39.56,119.48 72.59,71.81 72.59,71.81" style="fill:rgb(243,243,249);fill-rule:nonzero;"/>
        </g>
        <g transform="matrix(1,0,0,1,883.265,926.73)">
            <path d="M112.66,50.79L123.31,45.43L120.88,53.09L129.26,49.17L127.07,56.08L118.7,60L112.79,78.62C112.08,80.88 112.1,81.37 113.98,80.5L117.68,78.77C119.256,77.976 120.683,76.917 121.9,75.64L118.61,84.21L105.42,90.38C102.08,91.94 99.9,91.04 102.69,82.26L108.19,64.91L104.93,66.44L107.12,59.53L110.38,58L112.66,50.79Z" style="fill:rgb(7,112,60);fill-rule:nonzero;"/>
        </g>
        <g transform="matrix(1,0,0,1,883.265,926.73)">
            <path d="M143.52,42.46L142.66,46L142.75,46C143.81,44 145.07,41.78 146.64,41.06L155.15,37.06C160.1,34.75 160.58,38.75 158.08,46.63L153.52,60.97C151.98,65.85 152.06,67.03 152.1,68.54L139.27,74.54C140.884,71.821 142.138,68.903 143,65.86L148.5,48.51C149.19,46.33 148.98,45.79 147.69,46.4L143.86,48.19C142.56,48.79 141.86,49.75 141.2,51.93L135.7,69.27C134.15,74.15 134.23,75.33 134.28,76.84L121.45,82.84C123.064,80.131 124.318,77.223 125.18,74.19L131.23,55.12C132.78,50.24 132.7,49.06 132.64,47.56L143.52,42.46Z" style="fill:rgb(7,112,60);fill-rule:nonzero;"/>
        </g>
        <g transform="matrix(1,0,0,1,883.265,926.73)">
            <path d="M57.14,106.65C55.91,108.44 54.27,110.99 53.6,112.27C53.053,113.208 52.64,114.218 52.37,115.27L42.43,119.92C45.537,116.395 48.42,112.677 51.06,108.79L74.52,74.87L85.39,69.78L76.75,96.72L76.84,96.72L93.68,65.91L104.68,60.77L96.26,87.22C94.52,92.64 94.44,93.45 94.26,95.71L81.87,101.5C82.47,100.39 82.93,99.6 83.47,98.4C84.112,96.924 84.656,95.407 85.1,93.86L89.85,78.59L89.76,78.59L75.63,104.39L63.55,110.03L70.73,87.49L70.64,87.49L57.14,106.65Z" style="fill:rgb(7,112,60);fill-rule:nonzero;"/>
        </g>
        <g transform="matrix(1,0,0,1,883.265,926.73)">
            <path d="M61.24,124.27C63.98,117.56 64.68,114.45 64.11,112.47L95.11,98.15C104.11,93.94 105.31,98.32 100.36,112.99L93.36,135.93C91.3,142.72 86.09,147.27 77.08,151.48L44.21,166.87C45.96,163.68 47.11,160.87 49.73,153.87L61.24,124.27ZM66.33,146.44L74.75,142.5C77.4,141.27 78.14,140.06 79.75,135.22L85.75,117.54C87.38,112.69 87.33,111.85 84.68,113.1L77.68,116.25L66.33,146.44Z" style="fill:rgb(237,26,55);fill-rule:nonzero;"/>
        </g>
        <g transform="matrix(1,0,0,1,883.265,926.73)">
            <path d="M115.56,116L114,120.92C112.86,124.68 113.36,125.78 115.87,124.6L130.87,117.6C133.815,116.296 136.465,114.407 138.66,112.05L133.51,125.05L102.38,139.61C95.38,142.89 94.93,138.91 98.38,127.97L105,107.23C108.47,96.3 112,90.46 119,87.18L142.77,76.07C149.77,72.78 150.22,76.76 146.77,87.71L141.68,103.78L115.56,116ZM129.75,100.63L132,93.48C133,90.48 132.82,89.48 131.09,90.29L124.66,93.29C122.94,94.1 122.02,95.57 121.06,98.58L118.8,105.73L129.75,100.63Z" style="fill:rgb(237,26,55);fill-rule:nonzero;"/>
        </g>
        <g transform="matrix(1,0,0,1,883.265,926.73)">
            <path d="M214.54,52C216.43,49.31 218.93,45.48 219.95,43.58C220.783,42.18 221.413,40.668 221.82,39.09L237.36,31.83C232.578,37.128 228.139,42.726 224.07,48.59L189.14,99L169.68,108.09L182.56,68.04L182.4,68.11L155,115L138.64,122.65L151.17,83.34C153.76,75.28 153.87,74.09 154.17,70.72L172.58,62.12C171.69,63.78 171.01,64.95 170.21,66.75C169.25,68.936 168.438,71.185 167.78,73.48L160.71,96.18L160.85,96.12L183.85,56.88L205.46,46.78L194.71,80.26L194.88,80.19L214.54,52Z" style="fill:rgb(237,26,55);fill-rule:nonzero;"/>
        </g>
        <g transform="matrix(1,0,0,1,883.265,926.73)">
            <path d="M72.58,71.81L107,55.65L109.27,48.51L130.44,37.85L127.89,45.85L167.89,27.35C167.89,27.35 163.3,38.58 156,65.13L254.59,19.33C254.59,19.33 239,33.95 191.38,102.66L104.18,143.46C101.83,144.46 99.48,145.46 96.59,144.67L96.44,144.67C95.704,144.423 95.024,144.032 94.44,143.52C93.354,145.115 92.085,146.578 90.66,147.88C87.152,150.954 83.192,153.47 78.92,155.34L33.79,176.49C43.12,160.71 57.74,119.28 57.74,119.28L27.94,131.73C39.56,119.49 72.59,71.82 72.59,71.82" style="fill:white;fill-rule:nonzero;"/>
        </g>
        <g transform="matrix(1,0,0,1,883.265,926.73)">
            <path d="M112.66,50.79L123.31,45.43L120.88,53.09L129.26,49.17L127.07,56.08L118.7,60L112.79,78.62C112.08,80.88 112.1,81.37 113.98,80.5L117.68,78.77C119.256,77.976 120.683,76.917 121.9,75.64L118.61,84.21L105.42,90.38C102.08,91.94 99.9,91.04 102.69,82.26L108.19,64.91L104.93,66.44L107.12,59.53L110.38,58L112.66,50.79Z" style="fill:rgb(7,112,60);fill-rule:nonzero;"/>
        </g>
        <g transform="matrix(1,0,0,1,883.265,926.73)">
            <path d="M143.52,42.46L142.66,46L142.75,46C143.81,44 145.07,41.78 146.64,41.06L155.15,37.06C160.1,34.75 160.58,38.75 158.08,46.63L153.52,60.97C151.98,65.85 152.06,67.03 152.1,68.54L139.27,74.54C140.884,71.821 142.138,68.903 143,65.86L148.5,48.51C149.19,46.33 148.98,45.79 147.69,46.4L143.86,48.19C142.56,48.79 141.86,49.75 141.2,51.93L135.7,69.27C134.15,74.15 134.23,75.33 134.28,76.84L121.45,82.84C123.064,80.131 124.318,77.223 125.18,74.19L131.23,55.11C132.78,50.23 132.7,49.05 132.64,47.55L143.52,42.46Z" style="fill:rgb(7,112,60);fill-rule:nonzero;"/>
        </g>
        <g transform="matrix(1,0,0,1,883.265,926.73)">
            <path d="M57.14,106.66C55.91,108.45 54.27,111 53.6,112.28C53.053,113.218 52.64,114.228 52.37,115.28L42.43,119.93C45.537,116.405 48.42,112.687 51.06,108.8L74.52,74.87L85.39,69.78L76.75,96.72L76.84,96.72L93.68,65.91L104.68,60.77L96.26,87.22C94.52,92.64 94.44,93.45 94.26,95.71L81.85,101.5C82.45,100.39 82.91,99.6 83.45,98.4C84.092,96.924 84.636,95.407 85.08,93.86L89.83,78.59L89.74,78.59L75.61,104.39L63.53,110.03L70.71,87.49L70.62,87.49L57.14,106.66Z" style="fill:rgb(7,112,60);fill-rule:nonzero;"/>
        </g>
        <g transform="matrix(1,0,0,1,883.265,926.73)">
            <path d="M61.24,124.27C63.98,117.56 64.68,114.45 64.11,112.47L95.11,98.15C104.11,93.94 105.31,98.32 100.36,112.99L93.36,135.93C91.3,142.72 86.09,147.27 77.08,151.48L44.21,166.88C45.96,163.69 47.11,160.88 49.73,153.88L61.24,124.27ZM66.33,146.44L74.75,142.5C77.4,141.27 78.14,140.06 79.75,135.22L85.75,117.54C87.38,112.69 87.33,111.85 84.68,113.1L77.68,116.25L66.33,146.44Z" style="fill:rgb(237,26,55);fill-rule:nonzero;"/>
        </g>
        <g transform="matrix(1,0,0,1,883.265,926.73)">
            <path d="M115.56,116L114,120.92C112.86,124.68 113.36,125.78 115.87,124.6L130.87,117.6C133.815,116.296 136.465,114.407 138.66,112.05L133.51,125.05L102.38,139.61C95.38,142.89 94.93,138.91 98.38,127.97L105,107.24C108.47,96.31 112,90.47 119,87.18L142.77,76.07C149.77,72.78 150.22,76.76 146.77,87.71L141.68,103.78L115.56,116ZM129.75,100.62L132,93.49C133,90.49 132.82,89.49 131.09,90.3L124.66,93.3C122.94,94.11 122.02,95.58 121.06,98.59L118.8,105.74L129.75,100.62Z" style="fill:rgb(237,26,55);fill-rule:nonzero;"/>
        </g>
        <g transform="matrix(1,0,0,1,883.265,926.73)">
            <path d="M214.54,52C216.43,49.31 218.93,45.48 219.95,43.58C220.783,42.18 221.413,40.668 221.82,39.09L237.36,31.83C232.578,37.128 228.139,42.726 224.07,48.59L189.14,99L169.68,108.09L182.56,68.04L182.4,68.11L155,115L138.64,122.65L151.17,83.34C153.76,75.28 153.87,74.09 154.17,70.72L172.58,62.12C171.69,63.78 171.01,64.95 170.21,66.75C169.25,68.936 168.438,71.185 167.78,73.48L160.71,96.18L160.85,96.12L183.85,56.88L205.46,46.78L194.71,80.26L194.88,80.19L214.54,52Z" style="fill:rgb(237,26,55);fill-rule:nonzero;"/>
        </g>
        <g transform="matrix(1,0,0,1,883.265,926.73)">
            <path d="M205.09,100.77C203.318,100.77 201.86,102.228 201.86,104C201.86,105.772 203.318,107.23 205.09,107.23C206.862,107.23 208.32,105.772 208.32,104C208.32,103.997 208.32,103.993 208.32,103.99C208.321,103.959 208.321,103.929 208.321,103.898C208.321,102.181 206.908,100.768 205.191,100.768C205.158,100.768 205.124,100.769 205.09,100.77ZM205.09,106.49C203.719,106.49 202.59,105.361 202.59,103.99C202.59,102.619 203.719,101.49 205.09,101.49C206.457,101.493 207.58,102.618 207.58,103.985C207.58,105.354 206.454,106.48 205.085,106.48C205.083,106.48 205.082,106.48 205.08,106.48L205.09,106.49Z" style="fill:rgb(35,31,32);fill-rule:nonzero;"/>
        </g>
        <g transform="matrix(1,0,0,1,883.265,926.73)">
            <path d="M205.68,104.21C205.693,104.211 205.705,104.211 205.718,104.211C206.162,104.211 206.528,103.845 206.528,103.401C206.528,103.364 206.525,103.327 206.52,103.29C206.52,102.51 205.98,102.29 205.1,102.29L203.8,102.29L203.8,105.78L204.55,105.78L204.55,104.3L204.89,104.3L205.7,105.78L206.57,105.78L205.68,104.21ZM205.19,103.68L204.55,103.68L204.55,102.84L205.05,102.84C205.34,102.84 205.74,102.84 205.74,103.24C205.74,103.64 205.53,103.68 205.19,103.68Z" style="fill:rgb(35,31,32);fill-rule:nonzero;"/>
        </g>
    </g>
    <g id="Text">
        <path d="M1502.46,954.954C1505.84,966.254 1510.98,975.184 1517.42,981.886C1529.45,994.401 1550.07,1002.45 1580.4,1002.45L1661.6,1002.45C1691.92,1002.45 1712.54,994.401 1724.58,981.886C1728.62,977.683 1732.15,972.602 1735.05,966.608L1735.05,981.616C1735.05,993.122 1744.38,1002.45 1755.88,1002.45L1834.91,1002.45C1838.9,1002.45 1842.64,1001.32 1845.81,999.372C1849.05,1001.36 1852.81,1002.45 1856.71,1002.45L2023.48,1002.45C2033.52,1002.45 2042.13,995.285 2043.96,985.41L2057.59,911.836C2058.71,905.75 2057.07,899.478 2053.12,894.72C2049.16,889.961 2043.29,887.209 2037.1,887.209L1990.04,887.209L2068.14,591.822C2069.79,585.572 2068.45,578.909 2064.51,573.787C2060.56,568.665 2054.47,565.664 2048,565.664L1876.87,565.664C1866.83,565.664 1858.22,572.828 1856.39,582.703L1855.74,586.204C1855.58,574.833 1846.32,565.664 1834.91,565.664L1755.88,565.664C1749.26,565.664 1743.35,568.759 1739.53,573.584C1735.72,568.759 1729.81,565.664 1723.18,565.664L1642.53,565.664C1631.02,565.664 1621.69,574.991 1621.69,586.497L1621.69,891.569L1620.31,891.569L1620.31,586.497C1620.31,574.991 1610.98,565.664 1599.47,565.664L1518.81,565.664C1507.31,565.664 1497.98,574.991 1497.98,586.497L1497.98,599.295C1495.39,594.551 1492.26,590.216 1488.63,586.276C1476.77,573.409 1458.44,565.664 1432.7,565.664L1332.97,565.664C1307.24,565.664 1288.91,573.409 1277.05,586.276C1265.23,599.097 1258.73,616.107 1258.73,637.726C1258.73,637.726 1258.73,920.577 1258.73,920.577C1258.73,949.303 1266.2,969.438 1278.17,981.886C1288.68,992.82 1305.75,1000.35 1330.12,1002.07L1330.12,1013.23C1330.12,1024.73 1339.45,1034.06 1350.95,1034.06L1414.17,1034.06C1425.68,1034.06 1435.01,1024.73 1435.01,1013.23L1435.01,1002.11C1459.67,1000.46 1476.91,992.901 1487.51,981.886C1493.95,975.184 1499.09,966.254 1502.46,954.954ZM1432.7,607.33C1444.05,607.33 1452.76,608.838 1457.99,614.513C1463.25,620.225 1465.28,628.094 1465.28,637.726C1465.28,637.726 1465.28,920.577 1465.28,920.577C1465.28,935.475 1463.68,946.551 1457.47,953.007C1451.32,959.4 1440.02,960.783 1424.53,960.783L1414.17,960.783C1402.67,960.783 1393.34,970.11 1393.34,981.616L1393.34,992.393C1393.34,992.393 1371.79,992.393 1371.79,992.393C1371.79,992.393 1371.79,981.616 1371.79,981.616C1371.79,970.11 1362.46,960.783 1350.95,960.783L1341.14,960.783C1325.65,960.783 1314.35,959.4 1308.2,953.007C1302,946.551 1300.39,935.475 1300.39,920.577L1300.39,637.726C1300.39,628.094 1302.42,620.225 1307.69,614.513C1312.92,608.838 1321.62,607.33 1332.97,607.33C1332.97,607.33 1432.7,607.33 1432.7,607.33ZM1776.72,607.33L1814.08,607.33C1814.08,607.33 1814.08,882.082 1814.08,960.783C1814.08,960.783 1776.72,960.783 1776.72,960.783L1776.72,607.33ZM1942.84,902.717C1941.19,908.967 1942.53,915.63 1946.47,920.752C1950.42,925.875 1956.52,928.876 1962.98,928.876L2012.06,928.876C2012.06,928.876 2006.15,960.783 2006.15,960.783C2006.15,960.783 1884.08,960.783 1884.08,960.783C1884.08,960.783 1965.62,665.619 1965.62,665.619C1967.36,659.348 1966.06,652.629 1962.12,647.453C1958.18,642.276 1952.05,639.238 1945.54,639.238L1888.29,639.238C1888.29,639.238 1894.2,607.33 1894.2,607.33C1894.2,607.33 2020.94,607.33 2020.94,607.33C2020.94,607.33 1942.84,902.717 1942.84,902.717ZM1580.4,960.783C1564.9,960.783 1553.6,959.4 1547.45,953.007C1541.25,946.551 1539.65,935.475 1539.65,920.577C1539.65,920.577 1539.65,607.33 1539.65,607.33C1539.65,607.33 1578.64,607.33 1578.64,607.33C1578.64,607.33 1578.64,903.682 1578.64,903.682C1578.64,911.582 1580.7,917.314 1583.17,921.264C1586.83,927.125 1593.91,933.236 1607.1,933.236C1607.1,933.236 1634.9,933.236 1634.9,933.236C1648.08,933.236 1655.17,927.125 1658.83,921.264C1661.3,917.314 1663.36,911.582 1663.36,903.682C1663.36,903.682 1663.36,677.92 1663.36,607.33C1663.36,607.33 1702.35,607.33 1702.35,607.33C1702.35,607.33 1702.35,920.577 1702.35,920.577C1702.35,935.475 1700.75,946.551 1694.54,953.007C1688.39,959.4 1677.09,960.783 1661.6,960.783L1580.4,960.783ZM1366.76,634.878C1357.27,634.878 1350.55,638.456 1345.81,643.54C1341.51,648.142 1338.3,654.682 1338.3,663.886L1338.3,904.227C1338.3,912.888 1340.83,918.815 1343.54,922.604C1347.08,927.561 1354.01,933.236 1366.76,933.236C1366.76,933.236 1398.37,933.236 1398.37,933.236C1411.12,933.236 1418.05,927.561 1421.59,922.604C1424.3,918.815 1426.83,912.888 1426.83,904.227C1426.83,904.227 1426.83,663.341 1426.83,663.341C1426.83,654.336 1423.67,647.945 1419.49,643.442C1414.83,638.421 1408.24,634.878 1398.91,634.878L1366.76,634.878ZM1855.74,679.505L1855.74,906.88L1918.17,680.904L1863.25,680.904C1860.65,680.904 1858.11,680.419 1855.74,679.505ZM1379.96,676.544L1379.96,891.569L1385.17,891.569L1385.17,676.544L1379.96,676.544Z" style="fill:rgb(35,31,32);"/>
        <path id="Main" d="M1432.7,586.497C1451.23,586.497 1464.77,591.129 1473.31,600.394C1481.84,609.659 1486.11,622.103 1486.11,637.726L1486.11,920.577C1486.11,942.377 1481.57,958 1472.49,967.447C1463.4,976.893 1447.42,981.616 1424.53,981.616L1414.17,981.616L1414.17,1013.23L1350.95,1013.23L1350.95,981.616L1341.14,981.616C1318.26,981.616 1302.27,976.893 1293.19,967.447C1284.1,958 1279.56,942.377 1279.56,920.577L1279.56,637.726C1279.56,622.103 1283.83,609.659 1292.37,600.394C1300.91,591.129 1314.44,586.497 1332.97,586.497L1432.7,586.497ZM1755.88,586.497L1834.91,586.497L1834.91,981.616L1755.88,981.616L1755.88,586.497ZM1962.98,908.042L2037.1,908.042L2023.48,981.616L1856.71,981.616L1945.54,660.071L1863.25,660.071L1876.87,586.497L2048,586.497L1962.98,908.042ZM1580.4,981.616C1557.51,981.616 1541.52,976.893 1532.44,967.447C1523.35,958 1518.81,942.377 1518.81,920.577L1518.81,586.497L1599.47,586.497L1599.47,903.682C1599.47,906.589 1599.93,908.769 1600.83,910.222C1601.74,911.676 1603.83,912.402 1607.1,912.402L1634.9,912.402C1638.17,912.402 1640.26,911.676 1641.16,910.222C1642.07,908.769 1642.53,906.589 1642.53,903.682L1642.53,586.497L1723.18,586.497L1723.18,920.577C1723.18,942.377 1718.64,958 1709.56,967.447C1700.48,976.893 1684.49,981.616 1661.6,981.616L1580.4,981.616ZM1366.76,655.711C1361.67,655.711 1359.13,658.436 1359.13,663.886L1359.13,904.227C1359.13,907.134 1359.58,909.223 1360.49,910.495C1361.4,911.766 1363.49,912.402 1366.76,912.402L1398.37,912.402C1401.64,912.402 1403.73,911.766 1404.64,910.495C1405.55,909.223 1406,907.134 1406,904.227L1406,663.341C1406,658.254 1403.64,655.711 1398.91,655.711L1366.76,655.711Z" style="fill:rgb(148,201,61);fill-rule:nonzero;"/>
    </g>
</svg>
